<svg width="425" height="186" viewBox="0 0 425 186" fill="none" xmlns="http://www.w3.org/2000/svg">
<path d="M202.705 0C164.877 0 134.21 31.2744 134.21 69.8533H271.2C271.2 31.2744 240.534 0 202.705 0Z" fill="#6E8DFF"/>
<path d="M259.101 33.48C175.713 33.48 108.114 101.766 108.114 186H410.088C410.088 101.766 342.489 33.48 259.101 33.48Z" fill="#6C8BFF"/>
<path d="M82.0175 59.52C36.7205 59.52 0 96.161 0 141.36H164.035C164.035 96.161 127.315 59.52 82.0175 59.52Z" fill="#567AFF"/>
<path d="M367.215 81.8398C335.301 81.8398 309.43 108.488 309.43 141.36H425C425 108.488 399.129 81.8398 367.215 81.8398Z" fill="#567AFF"/>
</svg>
