<svg width="425" height="186" fill="none" xmlns="http://www.w3.org/2000/svg"><path d="M202.705 0c-37.828 0-68.495 31.274-68.495 69.853H271.2C271.2 31.274 240.534 0 202.705 0z" fill="#6E8DFF"/><path d="M259.101 33.48c-83.388 0-150.987 68.286-150.987 152.52h301.974c0-84.234-67.599-152.52-150.987-152.52z" fill="#6C8BFF"/><path d="M82.017 59.52C36.721 59.52 0 96.161 0 141.36h164.035c0-45.199-36.72-81.84-82.017-81.84zm285.198 22.32c-31.914 0-57.785 26.648-57.785 59.52H425c0-32.872-25.871-59.52-57.785-59.52z" fill="#567AFF"/></svg>