<svg width="114" height="50" viewBox="0 0 114 50" fill="none" xmlns="http://www.w3.org/2000/svg">
<path d="M54.3727 0C44.2257 0 36 8.4071 36 18.7778H72.7453C72.7453 8.4071 64.5196 0 54.3727 0Z" fill="#EEF3FF"/>
<path d="M69.5 9C47.1325 9 29 27.3563 29 50H110C110 27.3563 91.8675 9 69.5 9Z" fill="#E1EAFF"/>
<path d="M22 16C9.84974 16 0 25.8497 0 38H44C44 25.8497 34.1503 16 22 16Z" fill="#D5E0FB"/>
<path d="M98.5 22C89.9396 22 83 29.1634 83 38H114C114 29.1634 107.06 22 98.5 22Z" fill="#ECF1FC"/>
</svg>
