<svg width="67" height="68" fill="none" xmlns="http://www.w3.org/2000/svg"><path fill-rule="evenodd" clip-rule="evenodd" d="M33.809 4C17.335 4 4 17.274 4 33.625a2 2 0 11-4 0C0 15.044 15.148 0 33.809 0c3.436 0 6.757.51 9.887 1.461a2 2 0 01-1.163 3.828A29.976 29.976 0 0033.81 4zm-6.846 36.43c3.78 3.76 9.91 3.76 13.69 0 3.781-3.758 19.432-30.18 18.049-31.555C57.319 7.5 30.744 23.06 26.962 26.819a9.586 9.586 0 000 13.612zm6.845-4.055a2.758 2.758 0 002.766-2.75 2.758 2.758 0 00-2.766-2.75 2.758 2.758 0 00-2.766 2.75 2.758 2.758 0 002.766 2.75z" fill="#fff"/><path d="M8.915 50.125a2.758 2.758 0 01-2.766 2.75 2.758 2.758 0 01-2.766-2.75 2.758 2.758 0 012.766-2.75 2.758 2.758 0 012.766 2.75zm11.064 11a2.758 2.758 0 01-2.766 2.75 2.758 2.758 0 01-2.766-2.75 2.758 2.758 0 012.766-2.75 2.758 2.758 0 012.766 2.75zm16.595 4.125A2.758 2.758 0 0133.808 68a2.758 2.758 0 01-2.765-2.75 2.758 2.758 0 012.765-2.75 2.758 2.758 0 012.766 2.75zm16.596-4.125a2.758 2.758 0 01-2.766 2.75 2.758 2.758 0 01-2.766-2.75 2.758 2.758 0 012.766-2.75 2.758 2.758 0 012.766 2.75zm9.681-11a2.758 2.758 0 01-2.766 2.75 2.758 2.758 0 01-2.766-2.75 2.758 2.758 0 012.766-2.75 2.758 2.758 0 012.766 2.75zM67 33.625a2.758 2.758 0 01-2.766 2.75 2.758 2.758 0 01-2.766-2.75 2.758 2.758 0 012.766-2.75A2.758 2.758 0 0167 33.625z" fill="#fff"/></svg>