<svg width="75" height="66" fill="none" xmlns="http://www.w3.org/2000/svg"><path fill-rule="evenodd" clip-rule="evenodd" d="M28.625 4c-7.548 0-13.637 6.06-13.637 13.5S21.078 31 28.625 31c7.548 0 13.637-6.06 13.637-13.5S36.173 4 28.625 4zM10.988 17.5c0-9.682 7.913-17.5 17.637-17.5s17.637 7.818 17.637 17.5c0 9.681-7.913 17.5-17.637 17.5s-17.637-7.819-17.637-17.5zm17.637 22.527C14.978 40.027 4 50.807 4 64a2 2 0 01-4 0c0-15.495 12.863-27.973 28.625-27.973S57.25 48.505 57.25 64a2 2 0 01-4 0c0-13.193-10.978-23.973-24.625-23.973zM62.012 15.23c-2.727 0-4.954 2.227-4.954 4.993 0 2.766 2.227 4.993 4.954 4.993s4.953-2.227 4.953-4.993c0-2.766-2.226-4.993-4.953-4.993zm-7.954 4.993c0-4.406 3.553-7.993 7.954-7.993 4.4 0 7.953 3.587 7.953 7.993 0 4.406-3.552 7.993-7.953 7.993s-7.954-3.587-7.954-7.993z" fill="#5E80FF"/><path fill-rule="evenodd" clip-rule="evenodd" d="M62.012 30.322c-5.254 0-9.488 4.214-9.488 9.38a1.5 1.5 0 11-3 0c0-6.85 5.605-12.38 12.488-12.38 6.883 0 12.488 5.53 12.488 12.38a1.5 1.5 0 11-3 0c0-5.166-4.234-9.38-9.488-9.38z" fill="#5E80FF"/></svg>